<?xml version="1.0" standalone="no"?>
<!DOCTYPE svg PUBLIC "-//W3C//DTD SVG 20010904//EN"
 "http://www.w3.org/TR/2001/REC-SVG-20010904/DTD/svg10.dtd">
<svg version="1.0" xmlns="http://www.w3.org/2000/svg"
 width="1024.000000pt" height="1024.000000pt" viewBox="0 0 1024.000000 1024.000000"
 preserveAspectRatio="xMidYMid meet">
<metadata>
Created by potrace 1.14, written by Peter Selinger 2001-2017
</metadata>
<g transform="translate(0.000000,1024.000000) scale(0.100000,-0.100000)"
fill="#000000" stroke="none">
<path d="M5185 8892 c-2 -3 -37 -6 -77 -8 -95 -5 -249 -19 -258 -24 -3 -1 -25
-4 -50 -6 -60 -5 -115 -11 -115 -14 0 -1 -20 -4 -45 -6 -53 -5 -95 -11 -95
-13 0 -1 -11 -4 -25 -6 -14 -2 -38 -6 -55 -10 -16 -3 -41 -8 -55 -10 -14 -2
-38 -7 -55 -10 -16 -4 -39 -8 -50 -10 -11 -1 -20 -3 -20 -5 0 -1 -11 -3 -25
-5 -14 -1 -38 -5 -55 -9 -16 -3 -41 -8 -55 -11 -51 -10 -104 -23 -107 -25 -2
-2 -11 -3 -20 -4 -10 -1 -34 -6 -53 -11 -19 -5 -38 -10 -42 -11 -5 -1 -10 -3
-13 -4 -3 -1 -14 -4 -25 -5 -11 -1 -23 -4 -27 -5 -5 -1 -12 -2 -17 -1 -4 1
-14 -4 -22 -10 -8 -6 -14 -8 -14 -4 0 4 -7 2 -15 -5 -8 -7 -15 -9 -15 -6 0 4
-9 2 -21 -4 -11 -6 -28 -13 -37 -15 -9 -2 -30 -9 -47 -16 -16 -6 -34 -13 -40
-15 -9 -2 -124 -43 -180 -64 -11 -4 -24 -8 -28 -8 -4 0 -19 -8 -33 -16 -13 -9
-24 -14 -24 -11 0 4 -12 0 -27 -9 -60 -32 -113 -55 -113 -51 0 3 -20 -6 -45
-20 -25 -13 -46 -24 -48 -22 -2 2 -300 -147 -331 -166 -11 -7 -51 -31 -88 -54
-38 -24 -71 -43 -74 -43 -6 0 -144 -95 -244 -169 -299 -221 -654 -572 -892
-881 -71 -92 -198 -275 -198 -285 0 -4 -11 -21 -24 -38 -13 -18 -35 -53 -50
-79 -14 -27 -37 -67 -50 -90 -34 -61 -107 -202 -108 -208 0 -3 -14 -34 -31
-70 -17 -36 -32 -67 -32 -70 0 -3 -8 -21 -17 -40 -17 -37 -40 -89 -43 -102 -2
-5 -4 -10 -5 -13 -1 -3 -3 -8 -5 -12 -2 -8 -20 -55 -32 -83 -3 -8 -7 -18 -8
-22 -2 -5 -4 -10 -5 -13 -1 -3 -3 -8 -5 -12 -1 -5 -7 -21 -14 -38 -7 -16 -14
-34 -15 -40 -1 -5 -4 -14 -7 -20 -4 -5 -10 -23 -14 -40 -12 -44 -12 -45 -15
-50 -1 -3 -4 -9 -5 -15 -1 -5 -4 -12 -5 -15 -1 -3 -4 -9 -5 -15 -1 -5 -3 -11
-5 -12 -1 -3 -6 -21 -13 -50 -1 -7 -6 -19 -11 -26 -4 -7 -5 -16 -2 -19 3 -3 1
-14 -5 -25 -10 -19 -18 -49 -24 -93 -2 -11 -4 -20 -5 -20 -2 0 -10 -32 -15
-60 -2 -11 -6 -33 -10 -50 -4 -16 -8 -43 -10 -60 -2 -16 -4 -30 -5 -30 -2 0
-7 -36 -14 -105 -2 -19 -5 -37 -6 -40 -2 -3 -4 -18 -6 -35 -2 -16 -6 -52 -9
-80 -13 -117 -16 -210 -16 -570 1 -342 4 -531 11 -545 1 -3 4 -27 5 -55 1 -27
3 -52 5 -55 1 -3 4 -27 5 -55 2 -27 6 -77 10 -110 3 -33 8 -78 9 -100 2 -22 5
-42 6 -45 1 -3 3 -18 5 -35 1 -16 3 -32 5 -35 1 -3 4 -25 6 -50 7 -73 11 -115
13 -115 2 0 5 -20 7 -45 8 -69 12 -95 14 -95 2 0 4 -10 14 -90 3 -22 8 -56 11
-75 10 -59 16 -94 18 -115 1 -11 6 -26 10 -32 5 -7 6 -17 3 -22 -8 -12 12 -26
49 -36 44 -12 45 -12 50 -15 3 -1 8 -3 13 -5 4 -1 15 -5 25 -8 9 -4 25 -10 35
-14 9 -3 19 -7 22 -7 3 -1 10 -4 16 -8 6 -4 22 -9 36 -12 15 -2 35 -9 45 -14
10 -6 20 -10 23 -10 3 -1 12 -3 20 -6 20 -6 131 -38 150 -43 8 -2 20 -5 25 -6
6 -1 16 -6 23 -10 6 -5 12 -6 12 -3 0 3 12 1 28 -5 26 -10 37 -14 83 -24 11
-2 29 -7 39 -10 10 -3 27 -7 37 -9 10 -2 38 -9 63 -16 25 -7 56 -14 70 -16 34
-5 65 -12 65 -15 0 -1 9 -3 20 -5 67 -10 80 -13 80 -15 0 -2 34 -7 85 -13 19
-2 35 -5 35 -6 0 -2 35 -7 100 -14 22 -2 40 -5 40 -6 0 -3 55 -9 120 -14 33
-2 60 -5 60 -6 0 -3 226 -10 315 -10 93 0 243 7 335 15 39 4 90 8 115 10 25 1
45 4 45 5 0 1 14 3 30 5 17 2 48 6 70 9 22 4 56 9 75 12 19 2 46 6 60 8 14 2
25 4 25 6 0 1 11 3 25 5 14 2 36 6 50 9 35 9 81 18 105 21 11 1 20 3 20 5 0 1
11 3 25 5 14 1 37 5 52 8 33 7 40 1 113 -98 122 -163 437 -451 570 -520 17 -9
44 -24 60 -35 37 -23 369 -190 379 -190 3 0 23 -7 44 -17 20 -9 39 -17 42 -17
3 -1 15 -7 28 -14 12 -7 22 -10 22 -6 0 3 6 2 13 -4 12 -11 174 -71 207 -77 8
-2 16 -4 18 -5 1 -2 7 -4 12 -5 6 -1 11 -3 13 -5 2 -1 20 -6 50 -13 6 -1 18
-6 25 -11 7 -4 16 -5 19 -2 3 3 12 1 20 -6 7 -6 16 -8 20 -5 3 4 11 2 18 -3 6
-5 31 -12 55 -15 23 -3 51 -10 61 -16 11 -5 24 -7 29 -4 5 3 11 1 15 -4 3 -5
13 -10 23 -10 23 -1 77 -8 77 -11 0 -2 9 -4 20 -6 11 -1 38 -6 60 -9 67 -11
99 -16 125 -18 14 -2 30 -6 35 -9 6 -3 24 -5 40 -3 17 1 35 -1 40 -4 6 -3 30
-7 55 -8 25 -2 77 -5 115 -8 95 -7 373 -7 465 0 151 12 165 13 165 15 0 1 11
3 25 5 14 2 41 6 60 9 19 4 51 9 70 11 41 6 75 13 75 15 0 1 9 3 20 5 98 19
111 22 133 34 11 6 22 8 25 5 3 -3 12 -2 19 2 7 5 18 9 23 10 6 1 30 8 55 15
25 7 48 13 53 15 4 1 9 3 12 4 3 1 8 3 13 4 4 1 18 8 32 16 14 7 26 12 28 11
3 -3 51 14 102 37 19 9 40 17 47 18 17 3 213 100 318 157 323 177 653 464 923
802 96 121 252 344 252 361 0 4 6 15 14 23 7 9 25 36 38 61 14 25 36 63 48 85
31 54 141 272 159 316 8 18 24 57 37 84 12 28 26 63 29 78 4 15 11 30 16 33 5
3 9 12 9 21 0 8 6 29 14 46 13 28 37 98 42 120 1 4 3 9 4 12 1 3 4 10 5 15 1
6 3 11 5 13 2 2 5 16 14 54 2 12 9 30 15 41 6 11 8 22 5 25 -3 3 -2 12 2 19 5
7 9 18 11 23 1 6 4 20 7 33 12 47 17 68 21 87 9 39 15 65 20 85 10 41 15 66
20 100 6 42 13 75 15 75 1 0 4 11 6 25 2 14 6 41 9 60 3 19 7 49 8 65 2 17 6
35 9 40 3 6 5 25 3 43 -1 18 1 35 6 37 4 3 6 21 5 40 -2 19 0 37 4 40 4 2 6
29 5 60 -1 31 1 58 5 60 6 4 3 415 -4 510 -5 62 -12 124 -21 185 -2 19 -7 51
-9 70 -6 50 -22 138 -26 150 -1 3 -2 8 -2 11 1 4 -3 22 -9 40 -10 33 -14 50
-23 94 -2 11 -10 40 -17 65 -14 51 -17 63 -23 88 -3 9 -5 18 -6 20 -2 1 -3 5
-4 10 -1 6 -50 147 -64 182 -3 8 -6 17 -7 20 -1 3 -7 19 -14 35 -6 17 -21 55
-33 85 -12 30 -28 65 -36 78 -8 12 -12 22 -9 22 4 0 -27 64 -67 143 -217 426
-394 662 -772 1027 -195 188 -495 430 -652 525 -9 6 -36 24 -62 41 -25 16 -52
33 -60 37 -8 4 -28 16 -45 27 -29 19 -54 33 -180 105 -69 39 -266 140 -274
140 -3 1 -21 9 -38 18 -18 10 -34 17 -35 17 -6 -2 -44 12 -68 25 -14 7 -29 14
-35 15 -5 1 -21 7 -35 12 -14 6 -29 11 -35 12 -5 1 -14 4 -20 7 -10 6 -111 41
-130 45 -5 1 -29 9 -52 18 -24 8 -43 13 -43 9 0 -3 -6 -1 -13 5 -7 6 -24 12
-37 14 -14 2 -30 7 -36 10 -6 4 -26 10 -45 13 -46 9 -64 13 -64 15 0 2 -34 10
-60 15 -11 2 -20 4 -20 5 0 2 -34 10 -70 16 -48 8 -70 12 -70 14 0 1 -7 3 -15
5 -50 10 -89 17 -115 20 -16 2 -48 6 -70 9 -153 21 -194 25 -280 31 -89 7
-585 12 -590 7z"/>
</g>
</svg>
